<svg width="20" height="20" viewBox="0 0 20 20" fill="none" xmlns="http://www.w3.org/2000/svg">
<rect width="20" height="20" rx="10" fill="#7DB54F"/>
<path d="M5.13078 12.26H6.53078V7.42L6.63078 6.83L6.23078 7.3L5.13078 8.09L4.75078 7.58L6.95078 5.88H7.31078V12.26H8.68078V13H5.13078V12.26ZM13.96 7.59C13.96 7.94333 13.8933 8.30667 13.76 8.68C13.6333 9.04667 13.4633 9.41667 13.25 9.79C13.0433 10.1633 12.81 10.53 12.55 10.89C12.29 11.2433 12.03 11.58 11.77 11.9L11.28 12.33V12.37L11.92 12.26H14.1V13H10.12V12.71C10.2667 12.5567 10.4433 12.3667 10.65 12.14C10.8567 11.9133 11.07 11.6633 11.29 11.39C11.5167 11.11 11.7367 10.8167 11.95 10.51C12.17 10.1967 12.3667 9.88 12.54 9.56C12.72 9.24 12.8633 8.92333 12.97 8.61C13.0767 8.29667 13.13 8 13.13 7.72C13.13 7.39333 13.0367 7.12333 12.85 6.91C12.6633 6.69 12.38 6.58 12 6.58C11.7467 6.58 11.5 6.63333 11.26 6.74C11.02 6.84 10.8133 6.95667 10.64 7.09L10.31 6.52C10.5433 6.32 10.82 6.16333 11.14 6.05C11.46 5.93667 11.8033 5.88 12.17 5.88C12.4567 5.88 12.71 5.92333 12.93 6.01C13.15 6.09 13.3367 6.20667 13.49 6.36C13.6433 6.51333 13.76 6.69667 13.84 6.91C13.92 7.11667 13.96 7.34333 13.96 7.59Z" fill="white"/>
</svg>
